<?xml version="1.0" encoding="utf-8"?>
<!-- Generator: Adobe Illustrator 16.0.0, SVG Export Plug-In . SVG Version: 6.00 Build 0)  -->
<!DOCTYPE svg PUBLIC "-//W3C//DTD SVG 1.1//EN" "http://www.w3.org/Graphics/SVG/1.1/DTD/svg11.dtd">
<svg version="1.1" id="Layer_1" xmlns="http://www.w3.org/2000/svg" xmlns:xlink="http://www.w3.org/1999/xlink" x="0px" y="0px"
	 width="190px" height="50px" viewBox="0 0 190 50" enable-background="new 0 0 190 50" xml:space="preserve">
<g>
	<path fill-rule="evenodd" clip-rule="evenodd" fill="#FDFDFD" d="M3.882,24.618c0-0.824,0-1.647,0-2.471c0-1.196,0-2.392,0-3.69
		c4.785,0,9.467,0,14.215,0c0-4.831,0-9.56,0-14.27c0.821-0.22,8.552-0.294,11.55-0.121c0.022,1.003,0.046,2.018,0.068,3.032
		c0,1.373,0,2.746,0,4.12c-0.011,1.201-0.036,2.403-0.028,3.605c0.008,1.191-0.062,2.384,0.052,3.555
		c0.128,0.033,0.192,0.064,0.256,0.064c4.157-0.004,8.313-0.01,12.47-0.017c0.463,0.027,0.926,0.053,1.452,0.083
		c0,1.749,0,3.415,0,5.079c0,2.022,0,4.044,0,6.126c-1.229,0.155-2.388,0.056-3.541,0.072c-1.203,0.019-2.405,0.005-3.607,0.005
		c-1.168-0.002-2.337-0.002-3.505-0.002c-1.161,0-2.321,0-3.546,0c0,4.812,0,9.543,0,14.255c-0.807,0.234-8.32,0.314-11.525,0.137
		c-0.158-0.896-0.046-1.815-0.066-2.728c-0.02-0.927-0.004-1.854-0.004-2.781c0-0.963,0-1.926,0-2.887c0-0.928,0-1.856,0-2.783
		c0-0.924,0-1.849,0-2.702c-0.366-0.417-0.771-0.278-1.13-0.279c-3.986-0.009-7.971-0.005-11.957-0.005c-0.338,0-0.676,0-1.098,0
		C3.919,28.171,3.9,26.395,3.882,24.618z"/>
	<path fill-rule="evenodd" clip-rule="evenodd" fill="#FDFDFD" d="M58.346,43.586c-0.019,0.236-0.038,0.474-0.062,0.782
		c-0.267,0.024-0.527,0.066-0.788,0.071c-1.301,0.029-2.601,0.049-3.902,0.071c-1.024-0.021-2.049-0.052-3.074-0.062
		c-1.128-0.012-2.257-0.002-3.402-0.002c-0.086-0.125-0.214-0.229-0.229-0.346c-0.102-0.809-0.251-1.619-0.254-2.43
		c-0.021-5.65-0.011-11.301-0.012-16.952c0-0.308-0.01-0.615-0.016-0.924c0.019-0.549-0.005-1.103,0.063-1.646
		c0.304-2.411,0.92-4.743,1.836-6.994c0.212-0.347,0.44-0.684,0.632-1.041c0.736-1.363,1.663-2.584,2.712-3.72
		c1.192-1.29,2.62-2.285,4.047-3.282c1.787-0.859,3.579-1.706,5.532-2.134c1.346-0.191,2.69-0.398,4.038-0.571
		c1.079-0.138,2.164-0.235,3.354-0.362c0.021,1.433,0.042,2.86,0.063,4.286c0,0.824-0.001,1.648-0.001,2.471
		c0,1.062,0,2.122,0,3.197c-0.947,0.483-1.911,0.713-2.869,0.912c-2.248,0.463-4.128,1.53-5.646,3.243
		c-1.02,1.151-1.592,2.521-1.817,4.024c-0.136,0.909-0.205,1.833-0.219,2.752c-0.027,1.75,0.005,3.503,0.013,5.254
		c0,1.718,0,3.437,0,5.154c0,1.1,0,2.198,0,3.298c0,1.169,0,2.337,0,3.506C58.346,42.624,58.346,43.104,58.346,43.586z"/>
	<path fill-rule="evenodd" clip-rule="evenodd" fill="#FDFDFD" d="M83.73,4.508c1.198-0.214,2.393-0.461,3.598-0.631
		c0.704-0.1,1.425-0.078,2.139-0.111c2.694,0.033,5.264,0.63,7.737,1.683c1.424,0.605,2.714,1.433,3.972,2.321
		c0.276,0.197,0.562,0.383,0.844,0.574c0.258,0.269,0.51,0.542,0.772,0.805c0.382,0.381,0.777,0.749,1.155,1.132
		c1.324,1.342,2.375,2.879,3.255,4.54c0.029,0.053,0.104,0.083,0.156,0.122c0.604,1.52,1.265,3.019,1.566,4.644
		c0.156,0.839,0.354,1.667,0.347,2.528c-0.014,1.476,0.019,2.953-0.026,4.427c-0.02,0.643-0.181,1.278-0.275,1.917
		c-0.045,0.302-0.084,0.603-0.126,0.903c-0.072,0.188-0.153,0.373-0.215,0.563c-0.431,1.35-0.931,2.67-1.622,3.911
		c-0.229,0.409-0.44,0.828-0.661,1.243c-0.341,0.485-0.683,0.971-1.024,1.456c-0.482,0.561-0.965,1.119-1.448,1.679
		c-1.272,1.126-2.524,2.273-3.989,3.164c-2.048,1.246-4.199,2.218-6.564,2.676c-0.055,0.011-0.098,0.084-0.146,0.128
		c-1.151,0.128-2.301,0.258-3.453,0.381c-0.204,0.021-0.411,0.025-0.617,0.017c-4.545-0.191-8.745-1.438-12.388-4.228
		c-1.164-0.891-2.173-1.982-3.253-2.981c-0.156-0.207-0.312-0.414-0.468-0.62c-0.287-0.399-0.573-0.798-0.859-1.197
		c-0.133-0.208-0.266-0.417-0.398-0.625c-0.338-0.623-0.683-1.242-1.013-1.87c-0.792-1.505-1.215-3.123-1.465-4.795
		c-0.131-0.872-0.276-1.741-0.415-2.613c0.003-0.339,0.015-0.68,0.008-1.021c-0.028-1.563,0.033-3.119,0.403-4.649
		c0.223-0.917,0.428-1.838,0.641-2.758c0.299-0.676,0.581-1.359,0.899-2.026c0.946-1.984,2.188-3.761,3.77-5.296
		c0.167-0.162,0.298-0.362,0.446-0.543c1.183-0.888,2.365-1.778,3.549-2.667c1.221-0.549,2.438-1.109,3.667-1.643
		C82.714,4.836,83.228,4.687,83.73,4.508z M89.679,34.443c0.265-0.033,0.53-0.082,0.796-0.099c2.261-0.141,4.125-1.18,5.649-2.748
		c1.435-1.477,2.496-3.224,2.812-5.327c0.482-1.498,0.408-3.014,0.101-4.522c-0.339-1.663-1.037-3.172-2.117-4.493
		c-2.292-2.803-5.124-4.384-8.85-3.742c-1.196,0.205-2.394,0.536-3.359,1.372c-0.655,0.287-1.25,0.65-1.633,1.282
		c-0.06,0.031-0.132,0.05-0.177,0.095c-2.744,2.807-3.552,6.202-3.013,9.997c0.041,0.288,0.183,0.562,0.278,0.842
		c0.25,1.537,1.08,2.785,2.044,3.938c0.697,0.836,1.474,1.614,2.511,2.05C86.222,34.098,87.886,34.507,89.679,34.443z"/>
	<path fill-rule="evenodd" clip-rule="evenodd" fill="#FDFDFD" d="M146.972,6.023c-0.131,0.357-0.261,0.715-0.39,1.073
		c-0.132,0.277-0.288,0.545-0.388,0.833c-0.919,2.629-1.816,5.266-2.741,7.893c-0.713,2.019-1.467,4.022-2.18,6.041
		c-0.611,1.729-1.188,3.47-1.781,5.206c-0.179,0.49-0.36,0.979-0.539,1.468c-0.138,0.312-0.292,0.619-0.408,0.938
		c-1.248,3.386-2.467,6.782-3.74,10.158c-0.602,1.592-1.484,2.994-2.96,3.967c-1.618,1.066-3.387,1.235-5.214,0.901
		c-0.86-0.156-1.719-0.46-2.503-0.848c-1.043-0.516-1.714-1.446-2.253-2.463c-0.062-0.116-0.15-0.218-0.228-0.326
		c-0.349-0.987-0.689-1.979-1.052-2.962c-1.896-5.15-3.802-10.299-5.699-15.45c-0.789-2.143-1.563-4.292-2.347-6.437
		c-0.058-0.16-0.142-0.31-0.214-0.464c-0.011-0.1-0.003-0.206-0.034-0.299c-0.41-1.244-0.823-2.487-1.24-3.728
		c-0.242-0.724-0.494-1.446-0.74-2.168c-0.564-1.735-1.127-3.471-1.715-5.279c3.694,0,7.313,0,10.996,0
		c0.153,0.445,0.312,0.888,0.461,1.335c0.955,2.875,1.906,5.75,2.862,8.625c0.148,0.447,0.317,0.887,0.476,1.331
		c0.524,1.64,1.048,3.279,1.571,4.918c0.921,2.93,2.124,5.749,3.398,8.734c0.368-1.114,0.69-2.046,0.982-2.985
		c0.484-1.558,0.949-3.123,1.421-4.684c0.36-1.044,0.739-2.081,1.077-3.131c0.342-1.066,0.641-2.146,0.958-3.219
		c0.122-0.274,0.318-0.54,0.351-0.824c0.107-0.943,0.541-1.776,0.822-2.659c0.513-1.604,0.994-3.218,1.487-4.828
		c0.196-0.533,0.396-1.066,0.586-1.602c0.112-0.316,0.206-0.64,0.294-0.921c0.887-0.198,10.168-0.204,11.047-0.017
		C147.255,4.775,147.113,5.399,146.972,6.023z"/>
	<path fill-rule="evenodd" clip-rule="evenodd" fill="#FDFDFD" d="M154.029,7.727c1.763-1.098,3.58-2.073,5.575-2.69
		c1.735-0.538,3.502-0.867,5.324-0.846c0.479,0.005,0.96-0.016,1.439-0.024c1.688,0.066,3.307,0.519,4.938,0.897
		c0.499,0.203,0.996,0.409,1.496,0.607c3.054,1.204,5.675,3.038,7.82,5.51c1.535,1.769,2.746,3.75,3.493,5.99
		c0.029,0.087,0.113,0.158,0.17,0.237c0.241,1.025,0.539,2.04,0.71,3.075c0.282,1.715,0.526,3.438,0.172,5.186
		c-0.148,0.729-0.186,1.481-0.26,2.105c-0.317,0.4-0.647,0.318-0.945,0.312c-1.812-0.04-3.63-0.187-5.438-0.12
		c-7.065,0.261-14.131,0.049-21.196,0.125c-0.169,0.002-0.338,0.021-0.535,0.035c-0.27,0.718,0.049,1.354,0.268,1.977
		c0.549,1.574,1.61,2.772,2.967,3.692c1.783,1.209,3.708,2.008,5.927,1.963c1.931-0.037,3.592-0.78,5.084-1.912
		c0.951-0.722,1.806-1.57,2.751-2.406c3.215,0,6.502,0,9.884,0c-0.04,0.231-0.046,0.424-0.109,0.594
		c-0.851,2.265-2.035,4.315-3.73,6.072c-1.263,1.31-2.608,2.497-4.18,3.422c-0.172,0.103-0.314,0.255-0.47,0.384
		c-0.189,0.086-0.379,0.173-0.567,0.26c-0.643,0.323-1.285,0.646-1.928,0.971c-0.812,0.258-1.625,0.517-2.437,0.775
		c-0.39,0.15-0.862-0.068-1.206,0.278c-1.834,0.294-3.681,0.255-5.527,0.226c-2.01-0.031-3.896-0.599-5.743-1.318
		c-0.783-0.305-1.54-0.687-2.31-1.033c-0.77-0.557-1.559-1.092-2.309-1.675c-2.842-2.212-4.847-5.041-6.161-8.383
		c-0.6-1.527-0.892-3.128-1.252-4.715c-0.05-0.918-0.208-1.845-0.127-2.751c0.136-1.483,0.173-2.975,0.504-4.449
		c0.428-1.909,1.038-3.746,1.961-5.451c1.207-2.23,2.712-4.252,4.714-5.859C153.219,8.451,153.619,8.082,154.029,7.727z
		 M174.191,19.808c0-0.314,0.017-0.521-0.005-0.723c-0.019-0.167-0.083-0.328-0.127-0.493c-0.594-2.292-2.151-3.669-4.285-4.475
		c-0.957-0.361-1.954-0.547-2.977-0.686c-1.831-0.247-3.608-0.236-5.331,0.487c-1.844,0.774-3.375,1.938-4.421,3.669
		c-0.406,0.672-0.727,1.381-0.493,2.22C162.435,19.808,168.264,19.808,174.191,19.808z"/>
</g>
</svg>
