<?xml version="1.0" encoding="utf-8"?>
<!-- Generator: Adobe Illustrator 16.0.0, SVG Export Plug-In . SVG Version: 6.00 Build 0)  -->
<!DOCTYPE svg PUBLIC "-//W3C//DTD SVG 1.1//EN" "http://www.w3.org/Graphics/SVG/1.1/DTD/svg11.dtd">
<svg version="1.1" id="Layer_1" xmlns="http://www.w3.org/2000/svg" xmlns:xlink="http://www.w3.org/1999/xlink" x="0px" y="0px"
	 width="600px" height="165px" viewBox="0 0 600 165" enable-background="new 0 0 600 165" xml:space="preserve">
<path fill-rule="evenodd" clip-rule="evenodd" fill="#B7B0B0" d="M6.582,81.783c-0.001-2.665-0.001-5.328-0.002-7.992
	c0-3.866,0-7.731,0-11.932c15.473,0,30.618,0,45.971,0c0-15.626,0-30.918,0-46.15c2.654-0.71,27.658-0.951,37.35-0.391
	c0.074,3.245,0.148,6.524,0.222,9.805c0,4.44,0,8.881,0,13.322c-0.035,3.886-0.116,7.772-0.09,11.659
	c0.025,3.85-0.201,7.712,0.169,11.497c0.415,0.109,0.623,0.21,0.83,0.21c13.442-0.013,26.884-0.034,40.326-0.054
	c1.497,0.085,2.994,0.172,4.696,0.269c0,5.656,0,11.041,0,16.426c0,6.54,0,13.079,0,19.808c-3.974,0.504-7.722,0.182-11.452,0.238
	c-3.888,0.059-7.778,0.012-11.667,0.012c-3.778-0.002-7.557-0.002-11.334-0.002c-3.754,0-7.508,0-11.468,0
	c0,15.562,0,30.862,0,46.097c-2.609,0.76-26.908,1.02-37.273,0.441c-0.509-2.893-0.149-5.867-0.212-8.816
	c-0.064-2.998-0.013-5.998-0.013-9c0-3.111,0.001-6.221,0.001-9.332c0-3.002,0-6.002,0-9.002c0-2.99,0-5.979,0-8.736
	c-1.183-1.347-2.491-0.9-3.654-0.902c-12.889-0.031-25.779-0.02-38.668-0.02c-1.092,0-2.186,0-3.548,0
	C6.703,93.273,6.643,87.527,6.582,81.783z"/>
<path fill-rule="evenodd" clip-rule="evenodd" fill="#B7B0B0" d="M182.716,143.124c-0.061,0.768-0.121,1.533-0.2,2.529
	c-0.865,0.082-1.705,0.217-2.547,0.234c-4.207,0.092-8.413,0.154-12.621,0.229c-3.313-0.07-6.627-0.168-9.941-0.199
	c-3.649-0.035-7.298-0.008-11.002-0.008c-0.278-0.402-0.693-0.736-0.741-1.115c-0.329-2.615-0.811-5.238-0.82-7.859
	c-0.07-18.273-0.035-36.549-0.038-54.822c0-0.996-0.034-1.992-0.052-2.987c0.061-1.776-0.015-3.568,0.205-5.323
	c0.98-7.796,2.973-15.337,5.937-22.618c0.684-1.12,1.421-2.212,2.043-3.365c2.38-4.408,5.376-8.356,8.77-12.026
	c3.856-4.17,8.472-7.392,13.09-10.617c5.78-2.776,11.574-5.518,17.891-6.9c4.351-0.621,8.697-1.289,13.057-1.848
	c3.491-0.446,6.999-0.76,10.849-1.17c0.068,4.634,0.135,9.248,0.203,13.861c-0.001,2.663-0.002,5.327-0.003,7.991
	c0,3.431,0,6.862,0,10.336c-3.061,1.564-6.179,2.31-9.277,2.947c-7.268,1.498-13.352,4.95-18.258,10.486
	c-3.298,3.723-5.147,8.157-5.875,13.016c-0.44,2.939-0.663,5.93-0.71,8.902c-0.09,5.662,0.017,11.326,0.041,16.989
	c0,5.557,0,11.115-0.001,16.672c0,3.555,0,7.109,0,10.666c0,3.777,0,7.557,0,11.336
	C182.716,140.015,182.716,141.567,182.716,143.124z"/>
<path fill-rule="evenodd" clip-rule="evenodd" fill="#B7B0B0" d="M264.806,16.749c3.876-0.694,7.74-1.49,11.636-2.042
	c2.278-0.321,4.611-0.252,6.918-0.359c8.711,0.107,17.022,2.04,25.021,5.442c4.604,1.958,8.779,4.632,12.844,7.508
	c0.897,0.635,1.82,1.236,2.73,1.854c0.832,0.87,1.646,1.756,2.497,2.606c1.232,1.231,2.512,2.419,3.735,3.659
	c4.281,4.338,7.682,9.312,10.529,14.682c0.091,0.172,0.332,0.265,0.503,0.394c1.955,4.916,4.087,9.761,5.067,15.018
	c0.504,2.713,1.145,5.388,1.12,8.174c-0.047,4.774,0.057,9.551-0.088,14.32c-0.062,2.073-0.582,4.132-0.889,6.198
	c-0.144,0.972-0.274,1.946-0.409,2.918c-0.231,0.609-0.493,1.207-0.691,1.825c-1.396,4.363-3.012,8.635-5.251,12.648
	c-0.735,1.326-1.423,2.678-2.132,4.018c-1.104,1.57-2.21,3.141-3.314,4.713c-1.561,1.809-3.122,3.619-4.685,5.428
	c-4.118,3.639-8.165,7.35-12.898,10.232c-6.624,4.031-13.58,7.172-21.231,8.652c-0.178,0.035-0.317,0.271-0.474,0.414
	c-3.721,0.414-7.442,0.834-11.165,1.23c-0.661,0.07-1.332,0.082-1.995,0.055c-14.699-0.619-28.28-4.652-40.064-13.67
	c-3.763-2.881-7.027-6.41-10.52-9.645c-0.505-0.67-1.01-1.338-1.515-2.006c-0.925-1.293-1.851-2.582-2.776-3.873
	c-0.43-0.672-0.859-1.344-1.289-2.018c-1.094-2.018-2.208-4.02-3.275-6.049c-2.562-4.869-3.93-10.102-4.741-15.507
	c-0.422-2.82-0.893-5.633-1.343-8.449c0.012-1.101,0.047-2.201,0.028-3.301c-0.09-5.058,0.105-10.086,1.305-15.034
	c0.721-2.967,1.383-5.947,2.072-8.922c0.965-2.186,1.879-4.396,2.907-6.551c3.062-6.418,7.077-12.165,12.192-17.128
	c0.541-0.524,0.965-1.168,1.443-1.757c3.826-2.873,7.651-5.747,11.477-8.621c3.95-1.776,7.884-3.588,11.857-5.312
	C261.52,17.812,263.182,17.325,264.806,16.749z M284.043,113.558c0.858-0.107,1.715-0.264,2.577-0.318
	c7.312-0.455,13.337-3.814,18.269-8.889c4.64-4.773,8.072-10.425,9.093-17.226c1.565-4.843,1.319-9.75,0.326-14.625
	c-1.094-5.376-3.356-10.258-6.847-14.529c-7.412-9.064-16.57-14.179-28.618-12.105c-3.871,0.666-7.744,1.737-10.865,4.437
	c-2.119,0.927-4.042,2.103-5.282,4.148c-0.192,0.1-0.428,0.16-0.572,0.307c-8.875,9.078-11.488,20.056-9.743,32.328
	c0.132,0.933,0.593,1.817,0.901,2.725c0.809,4.968,3.493,9.005,6.611,12.738c2.255,2.699,4.766,5.217,8.121,6.631
	C272.866,112.44,278.246,113.763,284.043,113.558z"/>
<path fill-rule="evenodd" clip-rule="evenodd" fill="#B7B0B0" d="M469.325,21.647c-0.42,1.157-0.839,2.313-1.259,3.47
	c-0.422,0.896-0.928,1.763-1.254,2.693c-2.969,8.504-5.872,17.031-8.866,25.526c-2.302,6.53-4.743,13.009-7.048,19.537
	c-1.974,5.591-3.843,11.221-5.757,16.834c-0.583,1.583-1.167,3.165-1.747,4.749c-0.444,1.008-0.94,1.996-1.32,3.029
	c-4.032,10.948-7.976,21.933-12.096,32.851c-1.943,5.145-4.8,9.684-9.571,12.828c-5.235,3.447-10.954,3.996-16.862,2.918
	c-2.78-0.508-5.556-1.492-8.096-2.744c-3.371-1.666-5.541-4.678-7.283-7.965c-0.199-0.377-0.487-0.705-0.733-1.055
	c-1.131-3.193-2.229-6.4-3.402-9.578c-6.136-16.658-12.298-33.307-18.433-49.964c-2.553-6.931-5.055-13.88-7.591-20.818
	c-0.188-0.516-0.458-1-0.689-1.5c-0.034-0.324-0.009-0.666-0.108-0.968c-1.327-4.022-2.665-8.041-4.014-12.057
	c-0.787-2.34-1.598-4.673-2.396-7.01c-1.822-5.612-3.643-11.225-5.542-17.073c11.946,0,23.65,0,35.561,0
	c0.497,1.44,1.01,2.874,1.489,4.319c3.089,9.297,6.164,18.598,9.257,27.893c0.48,1.446,1.025,2.872,1.542,4.306
	c1.69,5.303,3.385,10.604,5.074,15.907c2.98,9.476,6.872,18.588,10.993,28.243c1.192-3.604,2.235-6.613,3.18-9.652
	c1.565-5.039,3.067-10.098,4.594-15.147c1.165-3.375,2.39-6.729,3.48-10.127c1.104-3.447,2.073-6.938,3.103-10.409
	c0.394-0.886,1.029-1.745,1.135-2.664c0.347-3.051,1.747-5.743,2.657-8.6c1.654-5.188,3.211-10.407,4.809-15.613
	c0.635-1.727,1.283-3.448,1.896-5.183c0.361-1.022,0.662-2.066,0.953-2.976c2.865-0.641,32.878-0.663,35.723-0.056
	C470.243,17.611,469.783,19.629,469.325,21.647z"/>
<path fill-rule="evenodd" clip-rule="evenodd" fill="#B7B0B0" d="M492.152,27.157c5.696-3.548,11.578-6.702,18.027-8.699
	c5.614-1.74,11.322-2.805,17.222-2.737c1.55,0.018,3.101-0.05,4.652-0.078c5.459,0.213,10.692,1.677,15.968,2.902
	c1.613,0.655,3.222,1.324,4.841,1.962c9.873,3.895,18.348,9.826,25.287,17.821c4.964,5.717,8.883,12.125,11.3,19.37
	c0.096,0.286,0.361,0.515,0.55,0.77c0.778,3.313,1.742,6.595,2.294,9.944c0.912,5.548,1.705,11.121,0.555,16.772
	c-0.479,2.358-0.601,4.789-0.84,6.808c-1.025,1.296-2.092,1.03-3.058,1.01c-5.861-0.126-11.736-0.603-17.585-0.387
	c-22.847,0.841-45.699,0.157-68.545,0.403c-0.547,0.006-1.094,0.072-1.731,0.114c-0.873,2.321,0.16,4.376,0.865,6.393
	c1.776,5.09,5.204,8.965,9.593,11.941c5.766,3.908,11.995,6.492,19.166,6.35c6.25-0.123,11.618-2.523,16.444-6.186
	c3.076-2.332,5.835-5.08,8.896-7.783c10.398,0,21.026,0,31.964,0c-0.132,0.748-0.147,1.371-0.354,1.922
	c-2.75,7.324-6.581,13.955-12.063,19.639c-4.084,4.236-8.438,8.074-13.517,11.066c-0.556,0.328-1.016,0.822-1.52,1.236
	c-0.611,0.281-1.226,0.562-1.836,0.842c-2.077,1.047-4.156,2.092-6.234,3.137c-2.627,0.838-5.255,1.676-7.882,2.51
	c-1.257,0.484-2.789-0.221-3.898,0.902c-5.93,0.951-11.901,0.826-17.874,0.73c-6.497-0.102-12.598-1.939-18.57-4.266
	c-2.538-0.988-4.983-2.219-7.472-3.34c-2.49-1.801-5.039-3.529-7.463-5.416c-9.194-7.152-15.674-16.301-19.924-27.111
	c-1.939-4.938-2.886-10.116-4.05-15.247c-0.164-2.967-0.677-5.968-0.412-8.896c0.437-4.798,0.562-9.62,1.63-14.388
	c1.383-6.174,3.354-12.112,6.341-17.628c3.902-7.211,8.769-13.75,15.245-18.946C489.532,29.498,490.826,28.307,492.152,27.157z
	 M557.353,66.225c0-1.016,0.056-1.683-0.016-2.336c-0.059-0.54-0.268-1.062-0.406-1.593c-1.92-7.411-6.964-11.862-13.86-14.471
	c-3.094-1.17-6.318-1.77-9.629-2.216c-5.923-0.798-11.667-0.765-17.24,1.573c-5.961,2.501-10.914,6.266-14.295,11.867
	c-1.311,2.171-2.35,4.466-1.596,7.175C519.333,66.225,538.183,66.225,557.353,66.225z"/>
</svg>
